<svg id="visual" viewBox="0 0 900 600" width="900" height="600" xmlns="http://www.w3.org/2000/svg" xmlns:xlink="http://www.w3.org/1999/xlink" version="1.1"><path d="M0 55L12.5 54C25 53 50 51 75 47C100 43 125 37 150 38C175 39 200 47 225 51C250 55 275 55 300 51C325 47 350 39 375 39C400 39 425 47 450 50C475 53 500 51 525 47C550 43 575 37 600 35C625 33 650 35 675 39C700 43 725 49 750 51C775 53 800 51 825 47C850 43 875 37 887.5 34L900 31L900 0L887.5 0C875 0 850 0 825 0C800 0 775 0 750 0C725 0 700 0 675 0C650 0 625 0 600 0C575 0 550 0 525 0C500 0 475 0 450 0C425 0 400 0 375 0C350 0 325 0 300 0C275 0 250 0 225 0C200 0 175 0 150 0C125 0 100 0 75 0C50 0 25 0 12.5 0L0 0Z" fill="#81a9d1"></path><path d="M0 103L12.5 103C25 103 50 103 75 100C100 97 125 91 150 93C175 95 200 105 225 106C250 107 275 99 300 96C325 93 350 95 375 96C400 97 425 97 450 98C475 99 500 101 525 100C550 99 575 95 600 90C625 85 650 79 675 79C700 79 725 85 750 91C775 97 800 103 825 101C850 99 875 89 887.5 84L900 79L900 29L887.5 32C875 35 850 41 825 45C800 49 775 51 750 49C725 47 700 41 675 37C650 33 625 31 600 33C575 35 550 41 525 45C500 49 475 51 450 48C425 45 400 37 375 37C350 37 325 45 300 49C275 53 250 53 225 49C200 45 175 37 150 36C125 35 100 41 75 45C50 49 25 51 12.5 52L0 53Z" fill="#5caed1"></path><path d="M0 157L12.5 158C25 159 50 161 75 156C100 151 125 139 150 141C175 143 200 159 225 164C250 169 275 163 300 160C325 157 350 157 375 156C400 155 425 153 450 153C475 153 500 155 525 156C550 157 575 157 600 154C625 151 650 145 675 142C700 139 725 139 750 143C775 147 800 155 825 152C850 149 875 135 887.5 128L900 121L900 77L887.5 82C875 87 850 97 825 99C800 101 775 95 750 89C725 83 700 77 675 77C650 77 625 83 600 88C575 93 550 97 525 98C500 99 475 97 450 96C425 95 400 95 375 94C350 93 325 91 300 94C275 97 250 105 225 104C200 103 175 93 150 91C125 89 100 95 75 98C50 101 25 101 12.5 101L0 101Z" fill="#2fb2c7"></path><path d="M0 319L12.5 319C25 319 50 319 75 319C100 319 125 319 150 321C175 323 200 327 225 320C250 313 275 295 300 290C325 285 350 293 375 299C400 305 425 309 450 311C475 313 500 313 525 308C550 303 575 293 600 285C625 277 650 271 675 275C700 279 725 293 750 305C775 317 800 327 825 319C850 311 875 285 887.5 272L900 259L900 119L887.5 126C875 133 850 147 825 150C800 153 775 145 750 141C725 137 700 137 675 140C650 143 625 149 600 152C575 155 550 155 525 154C500 153 475 151 450 151C425 151 400 153 375 154C350 155 325 155 300 158C275 161 250 167 225 162C200 157 175 141 150 139C125 137 100 149 75 154C50 159 25 157 12.5 156L0 155Z" fill="#00b4b3"></path><path d="M0 445L12.5 446C25 447 50 449 75 450C100 451 125 451 150 452C175 453 200 455 225 454C250 453 275 449 300 445C325 441 350 437 375 434C400 431 425 429 450 433C475 437 500 447 525 449C550 451 575 445 600 444C625 443 650 447 675 451C700 455 725 459 750 461C775 463 800 463 825 459C850 455 875 447 887.5 443L900 439L900 257L887.5 270C875 283 850 309 825 317C800 325 775 315 750 303C725 291 700 277 675 273C650 269 625 275 600 283C575 291 550 301 525 306C500 311 475 311 450 309C425 307 400 303 375 297C350 291 325 283 300 288C275 293 250 311 225 318C200 325 175 321 150 319C125 317 100 317 75 317C50 317 25 317 12.5 317L0 317Z" fill="#00b494"></path><path d="M0 535L12.5 534C25 533 50 531 75 529C100 527 125 525 150 523C175 521 200 519 225 521C250 523 275 529 300 534C325 539 350 543 375 541C400 539 425 531 450 528C475 525 500 527 525 531C550 535 575 541 600 543C625 545 650 543 675 542C700 541 725 541 750 541C775 541 800 541 825 537C850 533 875 525 887.5 521L900 517L900 437L887.5 441C875 445 850 453 825 457C800 461 775 461 750 459C725 457 700 453 675 449C650 445 625 441 600 442C575 443 550 449 525 447C500 445 475 435 450 431C425 427 400 429 375 432C350 435 325 439 300 443C275 447 250 451 225 452C200 453 175 451 150 450C125 449 100 449 75 448C50 447 25 445 12.5 444L0 443Z" fill="#3eb16b"></path><path d="M0 601L12.5 601C25 601 50 601 75 601C100 601 125 601 150 601C175 601 200 601 225 601C250 601 275 601 300 601C325 601 350 601 375 601C400 601 425 601 450 601C475 601 500 601 525 601C550 601 575 601 600 601C625 601 650 601 675 601C700 601 725 601 750 601C775 601 800 601 825 601C850 601 875 601 887.5 601L900 601L900 515L887.5 519C875 523 850 531 825 535C800 539 775 539 750 539C725 539 700 539 675 540C650 541 625 543 600 541C575 539 550 533 525 529C500 525 475 523 450 526C425 529 400 537 375 539C350 541 325 537 300 532C275 527 250 521 225 519C200 517 175 519 150 521C125 523 100 525 75 527C50 529 25 531 12.5 532L0 533Z" fill="#6bab3b"></path></svg>